<svg id="Logo_Schneider" data-name="Logo Schneider" xmlns="http://www.w3.org/2000/svg" width="235.594" height="70.292" viewBox="0 0 235.594 70.292">
  <path id="Path_471" data-name="Path 471" d="M16.182,0c.655.086,1.31.171,1.965.259A32.636,32.636,0,0,1,26.56,2.742a.41.41,0,0,1,.275.452q-.01,3.244,0,6.488c0,.335-.071.373-.373.24a41.829,41.829,0,0,0-7.108-2.553,15.411,15.411,0,0,0-6.471-.329A5.166,5.166,0,0,0,10.443,8.1a2.21,2.21,0,0,0-.393,3.1,5.4,5.4,0,0,0,2.035,1.581,53.384,53.384,0,0,0,5.493,2.206A28.076,28.076,0,0,1,23.9,18.1a10.046,10.046,0,0,1,4.472,6.92A10.343,10.343,0,0,1,22.7,36.216a17.09,17.09,0,0,1-7.194,1.817,25.673,25.673,0,0,1-9.587-1.2A33.221,33.221,0,0,1,1.039,34.6a.346.346,0,0,1-.22-.349c.005-2.572,0-5.145,0-7.739a.89.89,0,0,1,.485.244A30.007,30.007,0,0,0,7.965,30.31a15.5,15.5,0,0,0,8,.674,4.856,4.856,0,0,0,1.451-.526,2.873,2.873,0,0,0,.486-4.869,12.579,12.579,0,0,0-3.71-1.912c-2.214-.842-4.483-1.54-6.633-2.548a18.107,18.107,0,0,1-3.772-2.29A9.844,9.844,0,0,1,.1,12.388c-.012-.084.018-.189-.1-.23V9.6a2.512,2.512,0,0,0,.077-.307A8.974,8.974,0,0,1,2.523,4.1,13.345,13.345,0,0,1,9.982.372C10.734.227,11.494.123,12.251,0Z" transform="translate(0 -0.001)"/>
  <path id="Path_472" data-name="Path 472" d="M657.448,406.449c-.726-.2-1.481-.253-2.212-.446a10.454,10.454,0,0,1-7.858-8.915,19,19,0,0,1,1.9-10.606,6.511,6.511,0,0,1,.766-1.432c.036.12.138.1.224.1,1.763,0,3.526,0,5.289.006.212,0,.284-.087.342-.272.253-.81.522-1.615.783-2.422.181-.558.18-.558-.387-.559l-4.329-.007a34.491,34.491,0,0,1,4.491-4.908,27.826,27.826,0,0,1,11.432-6.314,15.829,15.829,0,0,1,9.353.038,10.206,10.206,0,0,1,7.085,8.5,15.729,15.729,0,0,1-.035,5c-.047.319-.154.413-.484.411-2.316-.017-4.632,0-6.947-.019a.51.51,0,0,0-.59.442c-.275.93-.59,1.848-.905,2.821h7.954a24.611,24.611,0,0,1-1.122,2.687c-.105.229-.288.182-.463.182-2.133,0-4.266.008-6.4-.006-.321,0-.479.07-.573.406-.217.775-.492,1.534-.739,2.3-.186.576-.183.577.4.577h5.607c.055.082.012.131-.022.178a29.83,29.83,0,0,1-15.3,11.362,19.46,19.46,0,0,1-3.879.8c-.073.008-.155-.006-.186.088Zm-1.359-12.388v-.043c-.716,0-1.432.014-2.147-.007-.267-.008-.366.083-.429.333-.361,1.444-.725,2.888-1.119,4.323-.1.359-.039.436.329.434,2.468-.014,4.936-.034,7.4,0a11.044,11.044,0,0,0,6.773-2.2,8.153,8.153,0,0,0,3.31-4.76c.757-3.051,1.6-6.081,2.408-9.12.221-.829.525-1.057,1.4-1.066,1.34-.014,2.679-.039,4.019-.035.307,0,.408-.1.473-.394.277-1.245.569-2.488.891-3.723.1-.4.069-.511-.381-.506-2.391.023-4.783.033-7.174,0a10.614,10.614,0,0,0-6.441,2.074,8.231,8.231,0,0,0-3.489,5.256c-.52,2.622-1.168,5.22-1.765,7.826a1.856,1.856,0,0,1-2,1.6c-.685.008-1.37,0-2.055,0m-4.081-6.028c-.99,0-1.979.009-2.969-.006a.41.41,0,0,0-.458.324c-.307.87-.567,1.753-.792,2.647-.06.236.01.284.234.283q2.992-.01,5.983,0a.334.334,0,0,0,.382-.28c.269-.87.548-1.737.847-2.6.117-.337-.012-.379-.3-.376-.974.011-1.949,0-2.923,0" transform="translate(-588.059 -336.158)"/>
  <path id="Path_473" data-name="Path 473" d="M2365.961,133.164q-.819,2.58-1.637,5.161c-.142.449-.292.9-.411,1.351-.073.278-.157.334-.416.163a12.292,12.292,0,0,0-2.083-1.124,4.693,4.693,0,0,0-6.047,1.55,18.162,18.162,0,0,0-2.66,5.166,1.607,1.607,0,0,0-.048.541c0,3.321-.009,6.641.008,9.962,0,.386-.1.475-.479.472q-3.519-.027-7.038,0c-.312,0-.406-.068-.406-.4q.014-12.2,0-24.4c0-.311.1-.37.383-.368,2.376.011,4.753.016,7.13,0,.374,0,.408.137.406.446-.011,2.072-.008,4.143,0,6.215,0,.159-.06.332.068.49a1.832,1.832,0,0,0,.34-.639,16,16,0,0,1,3.615-5.322,5.831,5.831,0,0,1,7.165-.767c.72.412,1.408.882,2.111,1.325Z" transform="translate(-2130.367 -118.813)"/>
  <path id="Path_474" data-name="Path 474" d="M1566.227,0a4.719,4.719,0,0,1,1.432.732,3.138,3.138,0,0,1,.828,3.071,6.5,6.5,0,0,1-5.841,4.956,2.894,2.894,0,0,1-3.033-3.678A6.483,6.483,0,0,1,1564.526.1c.083-.024.187.007.238-.1Z" transform="translate(-1416.935 -0.001)"/>
  <path id="Path_475" data-name="Path 475" d="M1705.207,40.039a10.484,10.484,0,0,1-4.138,2.17A11.143,11.143,0,0,1,1688.546,37a14.487,14.487,0,0,1-.035-15.04,10.814,10.814,0,0,1,8.574-5.437,14.323,14.323,0,0,1,7.648,1.234c.473.207.474.207.474-.293,0-4.036.005-8.072-.009-12.108,0-.367.1-.443.451-.441q3.519.023,7.037,0c.326,0,.436.059.435.417q-.016,18.139,0,36.279c0,.368-.107.448-.457.446q-3.519-.022-7.038,0c-.334,0-.453-.067-.429-.42.034-.5.009-.995.009-1.594m0-10.9c0-1.858-.01-3.716.009-5.573a.693.693,0,0,0-.385-.686,8.148,8.148,0,0,0-3.163-1.1,5.649,5.649,0,0,0-6.164,3,10.371,10.371,0,0,0-.066,9.245,5.332,5.332,0,0,0,4.928,3.207,6.41,6.41,0,0,0,4.523-1.739.8.8,0,0,0,.326-.688c-.014-1.888-.007-3.776-.007-5.665" transform="translate(-1532.237 -4.463)"/>
  <path id="Path_476" data-name="Path 476" d="M626.961,20.7a13.234,13.234,0,0,1,3.074-2.893c3.873-2.523,9.773-1.552,12.388,2.052a9.306,9.306,0,0,1,1.731,5.48c.043,3.486.029,6.974.037,10.46,0,.192.054.38-.275.391a28.972,28.972,0,0,0-7.137,1.41c-.145.042-.291.079-.445.12-.118-.154-.061-.324-.061-.48,0-3.229,0-6.458-.007-9.686a8.193,8.193,0,0,0-.438-2.78,3.75,3.75,0,0,0-5.38-2.163,9.7,9.7,0,0,0-2.988,2.705,2.133,2.133,0,0,0-.513,1.487c.022,4.919.007,9.839.023,14.758,0,.412-.11.493-.5.489-2.33-.019-4.661-.016-6.992,0-.334,0-.467-.051-.467-.436q.017-18.139,0-36.278c0-.343.084-.429.427-.427q3.541.024,7.083,0c.359,0,.446.091.445.447q-.018,7.356-.008,14.712Z" transform="translate(-562.417 -4.454)"/>
  <path id="Path_477" data-name="Path 477" d="M1270.652,148.455c0,1.649,0,3.213,0,4.777,0,.272-.235.337-.4.451a16.518,16.518,0,0,1-7.639,2.894,20.92,20.92,0,0,1-8.814-.613c-4.546-1.434-7.681-4.315-8.681-9.08a13.169,13.169,0,0,1,3.259-12.4,12.138,12.138,0,0,1,6.877-3.592,14.062,14.062,0,0,1,8.82,1.058,11.9,11.9,0,0,1,6.65,8.79,17.163,17.163,0,0,1,.3,3.812c-.007.373-.087.478-.473.477q-7.311-.022-14.623-.009h-2.285c-.628,0-.628,0-.547.625a6.842,6.842,0,0,0,5.554,6.113,12.327,12.327,0,0,0,8.823-1.306,30.7,30.7,0,0,0,3.172-2m-12.084-7.653c1.66,0,3.32-.016,4.979.011.446.007.554-.114.436-.529-.1-.335-.119-.69-.217-1.024a5.353,5.353,0,0,0-8.592-2.736,6.255,6.255,0,0,0-1.955,3.911c-.054.331.028.376.323.374,1.675-.011,3.35-.005,5.025-.005" transform="translate(-1130.945 -118.682)"/>
  <path id="Path_478" data-name="Path 478" d="M2040.424,148.535c0,1.593-.007,3.129.007,4.666,0,.249-.141.344-.3.458a16.5,16.5,0,0,1-7.172,2.867,20.875,20.875,0,0,1-9.355-.521c-4.405-1.371-7.52-4.128-8.613-8.711a13.215,13.215,0,0,1,3.006-12.593,12.347,12.347,0,0,1,7.931-3.906,13.812,13.812,0,0,1,7.919,1.2,11.984,11.984,0,0,1,6.569,8.552,16.979,16.979,0,0,1,.39,4.079c-.005.357-.1.447-.452.446-3.427-.014-6.854-.008-10.281-.008-2.315,0-4.631.005-6.946-.006-.312,0-.406.046-.369.4a7.069,7.069,0,0,0,6.091,6.452,12.939,12.939,0,0,0,9.3-1.909c.749-.461,1.482-.945,2.283-1.457m-12.07-7.695c1.7,0,3.41,0,5.115,0,.261,0,.367-.02.309-.339a9.228,9.228,0,0,0-.485-1.8,5.375,5.375,0,0,0-8.686-1.883,6.954,6.954,0,0,0-1.612,3.653c-.055.325.045.372.336.37,1.674-.012,3.349-.006,5.024-.006" transform="translate(-1830.336 -118.72)"/>
  <path id="Path_479" data-name="Path 479" d="M942.6,134.661a14.2,14.2,0,0,1,2.966-2.59,9.964,9.964,0,0,1,11.747,1.009,8.661,8.661,0,0,1,2.521,5.287,13.769,13.769,0,0,1,.109,1.959q0,7.724.008,15.448c0,.4-.091.5-.5.5q-3.5-.033-6.994,0c-.361,0-.451-.1-.45-.453q.018-7.518.007-15.036a7.5,7.5,0,0,0-.194-1.765,3.845,3.845,0,0,0-6.129-2.345,12.425,12.425,0,0,0-2.417,2.471,2.957,2.957,0,0,0-.7,2.079c.041,3.122.017,6.246.016,9.369,0,.541,0,.543-.5.415a40.062,40.062,0,0,0-6.355-.971c-1.064-.1-1.065-.075-1.065-1.134q0-8.661-.009-17.321c0-.368.07-.483.463-.479q3.5.032,6.994,0c.366,0,.5.066.483.463-.032.986-.011,1.974-.011,3.1" transform="translate(-849.215 -118.676)"/>
  <path id="Path_480" data-name="Path 480" d="M354.2,149.4c0,1.854,0,3.666,0,5.477,0,.19-.038.3-.244.365a25.93,25.93,0,0,1-8.7,1.584,15.867,15.867,0,0,1-9.235-2.794,11.764,11.764,0,0,1-4.867-8.819A12.7,12.7,0,0,1,341.206,131.2a20.339,20.339,0,0,1,10.283.4c.69.183,1.366.409,2.036.66.229.086.335.18.333.448q-.021,2.6,0,5.208c0,.332-.08.345-.353.214a15.658,15.658,0,0,0-5.2-1.588,8.9,8.9,0,0,0-5.057.857,6.28,6.28,0,0,0-3.4,4.393,8.03,8.03,0,0,0,.665,5.762,6.929,6.929,0,0,0,6.012,3.611,12.645,12.645,0,0,0,5.007-.821c.877-.292,1.744-.613,2.675-.942" transform="translate(-300.811 -118.756)"/>
  <path id="Path_481" data-name="Path 481" d="M1573.714,148.481c0,4.021,0,8.041.008,12.062,0,.365-.067.489-.465.486q-3.518-.032-7.037,0c-.349,0-.421-.093-.42-.429q.015-12.153,0-24.306c0-.32.046-.439.41-.436q3.541.029,7.083,0c.338,0,.43.077.428.424-.013,4.066-.009,8.133-.009,12.2" transform="translate(-1422.641 -123.435)"/>
  <path id="Path_482" data-name="Path 482" d="M1135.3,469.816c0-3.458.007-6.916-.009-10.373,0-.4.091-.506.5-.5q5.667.026,11.335,0c.367,0,.505.067.483.464a19.269,19.269,0,0,0,0,1.964c.016.348-.089.424-.427.423-2.757-.015-5.515,0-8.272-.02-.458,0-.543.132-.538.558.024,1.858.02,3.717,0,5.575,0,.353.08.457.446.454,2.666-.017,5.332,0,8-.019.373,0,.453.112.439.456-.026.639-.031,1.28,0,1.919.019.372-.073.482-.465.479-2.62-.02-5.241,0-7.861-.023-.472,0-.569.123-.563.574.027,1.9.022,3.808,0,5.712,0,.37.111.453.462.451,2.849-.013,5.7,0,8.547-.016.368,0,.508.075.488.469-.033.653-.032,1.311,0,1.964.018.37-.1.451-.458.45-3.733-.013-7.465-.008-11.2-.008-.911,0-.911,0-.911-.9Z" transform="translate(-1031.489 -416.979)"/>
  <path id="Path_483" data-name="Path 483" d="M1478.282,547.714c0,.9,0,1.716,0,2.534a.342.342,0,0,1-.184.329,9.428,9.428,0,0,1-7.462,1.348,6.026,6.026,0,0,1-4.183-3.588,8.224,8.224,0,0,1,.623-8.536,6.474,6.474,0,0,1,9.481-.834,7.23,7.23,0,0,1,1.819,4.146c.081.556.09,1.121.151,1.68.035.318-.071.408-.4.407-3.061-.013-6.122,0-9.182-.018-.431,0-.5.1-.411.5.679,3.006,2.812,4.025,5.675,3.669a9.254,9.254,0,0,0,3.6-1.361l.468-.276m-6.159-4.441h3.239c.163,0,.3.035.306-.24a3.359,3.359,0,0,0-2.387-3.206,3.7,3.7,0,0,0-4.683,3.119c-.039.262.015.336.286.333,1.08-.014,2.16-.006,3.239-.006" transform="translate(-1331.565 -488.155)"/>
  <path id="Path_484" data-name="Path 484" d="M2393.734,548.873c0,.857,0,1.665,0,2.472,0,.162-.01.291-.2.356-2.389.814-4.8,1.195-7.216.161a6.5,6.5,0,0,1-4.069-5.526,8.489,8.489,0,0,1,1.249-5.9,6.34,6.34,0,0,1,5.261-2.815,9.163,9.163,0,0,1,4.31.8c.146.066.318.084.315.321-.01.938,0,1.876,0,2.882a17.615,17.615,0,0,0-1.717-.954,5.143,5.143,0,0,0-3.344-.341,4.268,4.268,0,0,0-3.166,3.869,6.606,6.606,0,0,0,.132,2.356,4.277,4.277,0,0,0,4.006,3.238,8.164,8.164,0,0,0,3.357-.519c.342-.122.682-.248,1.082-.394" transform="translate(-2164.371 -488.451)"/>
  <path id="Path_485" data-name="Path 485" d="M1691.551,541.57a9.354,9.354,0,0,0-2.643-1.287,4.315,4.315,0,0,0-5.594,4.006,6.576,6.576,0,0,0,.144,2.174,4.282,4.282,0,0,0,4.032,3.263,8.958,8.958,0,0,0,3.784-.68l.629-.234c0,.879,0,1.712,0,2.546a.275.275,0,0,1-.228.289,10.351,10.351,0,0,1-6.489.413,6.74,6.74,0,0,1-4.778-5.817,9.4,9.4,0,0,1,.6-4.611,6.28,6.28,0,0,1,5.587-4.055,9.262,9.262,0,0,1,4.634.755.459.459,0,0,1,.331.5c-.019.88-.007,1.761-.007,2.734" transform="translate(-1526.718 -488.388)"/>
  <path id="Path_486" data-name="Path 486" d="M1889.129,508c0,.917.015,1.737-.007,2.556-.009.324.1.412.411.407,1.234-.016,2.468,0,3.7-.013.314,0,.428.076.414.4-.026.593-.029,1.189,0,1.781.018.358-.113.426-.443.421-1.218-.019-2.438.005-3.656-.016-.343-.006-.433.084-.43.429.016,2.239.008,4.479.008,6.718a2.089,2.089,0,0,0,2.7,2.264,5.8,5.8,0,0,0,1.315-.367c.416-.176.82-.38,1.275-.593,0,.849,0,1.665,0,2.481a.239.239,0,0,1-.162.245,7.021,7.021,0,0,1-5.175.581,3.991,3.991,0,0,1-2.777-3.937c-.053-2.436-.032-4.874-.012-7.311,0-.433-.126-.534-.527-.508-.531.034-1.066.014-1.6,0-.118,0-.294.091-.346-.108a.4.4,0,0,1,.14-.407c.677-.658,1.348-1.323,2.02-1.985q1.465-1.443,2.93-2.884a2.627,2.627,0,0,1,.219-.161" transform="translate(-1711.572 -461.554)"/>
  <path id="Path_487" data-name="Path 487" d="M1346.647,469.828c0-3.473.006-6.946-.009-10.419,0-.377.092-.495.476-.476.684.033,1.371.017,2.056,0,.236,0,.337.066.314.31-.016.166,0,.335,0,.5q0,10.236.011,20.473c0,.444-.107.575-.55.546a16.759,16.759,0,0,0-1.873,0c-.343.016-.432-.083-.431-.428.014-3.5.008-7.007.008-10.511" transform="translate(-1223.518 -416.971)"/>
  <path id="Path_488" data-name="Path 488" d="M2074.773,540.916c.49-.6.886-1.234,1.377-1.8a3.6,3.6,0,0,1,5.4-.6c.862.632.862.631.309,1.514-.282.451-.573.9-.837,1.36-.137.24-.238.3-.462.082a4.584,4.584,0,0,0-1.454-.928,2.744,2.744,0,0,0-3.141.8,4.746,4.746,0,0,0-1.19,3.268q-.023,3.565,0,7.129c0,.382-.1.492-.479.473-.654-.033-1.31-.026-1.965,0-.323.012-.408-.088-.407-.407.012-2.833.007-5.667.007-8.5,0-1.691.007-3.382-.007-5.073,0-.307.064-.43.4-.418.685.025,1.372.026,2.056,0,.339-.013.4.116.394.419-.018.893-.006,1.786-.006,2.679" transform="translate(-1882.498 -488.423)"/>
  <path id="Path_489" data-name="Path 489" d="M2273.581,547.431c0-2.253.008-4.507-.009-6.76,0-.346.09-.443.431-.429.654.028,1.31.028,1.964,0,.358-.015.459.089.457.453-.016,2.71-.009,5.42-.009,8.13,0,1.8-.01,3.593.008,5.39,0,.348-.1.44-.435.427-.669-.027-1.34-.025-2.009,0-.321.012-.408-.085-.406-.4.013-2.268.007-4.537.007-6.806" transform="translate(-2065.703 -490.848)"/>
  <path id="Path_490" data-name="Path 490" d="M2274.944,478.469a2.261,2.261,0,0,1-2.356,2.044,1.055,1.055,0,0,1-.831-1.377,2.3,2.3,0,0,1,1.948-1.686,1.054,1.054,0,0,1,1.238,1.018" transform="translate(-2064.019 -433.794)"/>
</svg>
