<?xml version="1.0" standalone="no"?>
<!DOCTYPE svg PUBLIC "-//W3C//DTD SVG 20010904//EN"
 "http://www.w3.org/TR/2001/REC-SVG-20010904/DTD/svg10.dtd">
<svg version="1.0" xmlns="http://www.w3.org/2000/svg"
 width="3840.000000pt" height="962.000000pt" viewBox="0 0 3840.000000 962.000000"
 preserveAspectRatio="xMidYMid meet">

<g transform="translate(0.000000,962.000000) scale(0.100000,-0.100000)"
fill="#000000" stroke="none">
<path d="M0 4810 l0 -4810 19200 0 19200 0 0 4810 0 4810 -19200 0 -19200 0 0
-4810z m16084 -446 c24 -9 19 -36 -13 -74 -28 -33 -31 -35 -108 -38 -79 -4
-130 10 -148 39 -11 17 27 37 85 45 30 3 78 12 105 20 61 16 60 15 79 8z
m4506 -167 c49 -17 44 -38 -13 -56 -43 -13 -51 -13 -82 2 -35 17 -48 50 -22
60 22 9 81 6 117 -6z m5961 -218 c20 -30 82 -147 139 -260 57 -112 114 -218
126 -235 13 -17 24 -40 24 -51 0 -12 45 -122 101 -244 56 -123 141 -318 190
-434 49 -115 109 -253 133 -305 100 -217 155 -361 168 -435 22 -127 22 -120 6
-105 -12 13 -39 54 -73 112 -5 9 -31 53 -57 97 -27 44 -48 84 -48 89 0 5 -13
33 -30 63 -16 30 -30 61 -30 69 0 9 -11 32 -24 51 -14 20 -28 49 -32 65 -7 32
-14 48 -144 329 -51 110 -135 301 -187 425 -52 124 -110 254 -128 290 -18 36
-38 83 -43 105 -5 22 -35 105 -65 185 -70 184 -90 250 -74 247 7 -1 28 -27 48
-58z m5273 -17 c-17 -15 -52 -40 -79 -57 -62 -39 -204 -125 -230 -139 -11 -6
-108 -64 -215 -128 -107 -63 -211 -125 -230 -135 -132 -74 -288 -168 -305
-183 -11 -10 -40 -26 -65 -36 -25 -10 -110 -54 -190 -99 -128 -72 -218 -121
-395 -216 -87 -46 -116 24 261 -621 35 -59 79 -129 98 -154 20 -26 41 -65 48
-88 14 -49 24 -66 99 -171 31 -44 63 -102 72 -130 12 -43 114 -217 162 -280 8
-10 15 -29 15 -42 0 -13 1 -26 1 -30 1 -4 -5 -12 -14 -17 -17 -11 -57 28 -124
122 -21 29 -75 101 -121 160 -73 96 -90 122 -124 197 -5 11 -42 63 -83 115
-41 52 -75 102 -75 111 0 19 -65 121 -108 171 -18 19 -39 53 -48 74 -9 22 -49
89 -88 149 -127 194 -256 402 -256 411 0 11 16 21 139 88 90 49 139 76 331
179 41 22 84 48 95 58 11 10 39 25 62 33 23 8 162 77 310 153 487 251 1051
528 1083 532 3 0 -9 -12 -26 -27z m-12698 -47 c19 -26 -4 -49 -48 -48 -56 1
-161 1 -205 0 -50 -2 -73 15 -57 41 15 23 39 27 176 26 106 0 122 -3 134 -19z
m-11206 -105 c-9 -5 -194 -68 -413 -140 -368 -123 -399 -135 -431 -169 -20
-20 -88 -114 -153 -208 -126 -184 -394 -559 -421 -590 -10 -10 -37 -45 -62
-78 -91 -123 -221 -276 -300 -356 -36 -36 -82 -86 -103 -110 -21 -24 -37 -39
-35 -34 6 14 22 51 57 127 17 37 31 70 31 73 0 4 15 30 33 58 19 29 60 95 93
147 198 322 641 951 699 995 17 13 93 41 170 64 77 23 241 71 365 107 124 37
272 79 330 94 108 29 169 38 140 20z m17926 -67 c50 -32 58 -46 44 -74 -13
-23 -50 -33 -93 -25 -48 9 -57 19 -59 59 -2 70 37 85 108 40z m-192 1 c15 -14
14 -50 -1 -76 -8 -14 -67 -8 -103 10 -42 20 -46 51 -10 69 35 18 95 16 114 -3z
m7796 -88 c0 -3 -4 -8 -10 -11 -5 -3 -10 -1 -10 4 0 6 5 11 10 11 6 0 10 -2
10 -4z m-77 -47 c-4 -14 0 -16 16 -12 12 3 21 1 21 -3 0 -10 -60 -80 -60 -70
0 3 -31 -18 -70 -47 -38 -28 -95 -68 -125 -87 -31 -19 -64 -42 -74 -51 -19
-18 -122 -82 -203 -128 -25 -14 -63 -40 -82 -58 -20 -17 -50 -34 -66 -38 -17
-4 -30 -11 -30 -16 0 -5 -5 -9 -11 -9 -14 0 -127 -68 -153 -92 -11 -10 -29
-21 -40 -24 -12 -4 -43 -21 -71 -38 -27 -17 -67 -40 -87 -51 -48 -25 -51 -35
-28 -90 16 -38 24 -45 47 -45 18 0 109 48 253 134 124 74 232 140 240 148 17
16 46 33 80 48 72 33 183 92 191 102 3 5 59 35 125 68 65 33 134 69 152 80 18
11 38 17 44 14 6 -4 8 -2 5 3 -4 6 4 11 18 12 47 3 55 4 55 12 0 12 43 18 59
9 14 -8 13 -11 -6 -16 -13 -3 -23 -10 -23 -15 0 -16 -62 -67 -148 -121 -46
-29 -110 -72 -143 -95 -32 -24 -64 -43 -69 -43 -6 0 -10 -4 -10 -9 0 -5 -13
-14 -30 -21 -16 -7 -30 -18 -30 -24 0 -6 -19 -17 -43 -24 -23 -7 -62 -28 -86
-47 -23 -19 -52 -37 -64 -41 -18 -6 -122 -67 -352 -207 -27 -16 -85 -50 -127
-74 -105 -60 -119 -87 -71 -143 15 -19 61 -48 110 -70 46 -21 86 -46 89 -55 4
-9 -1 -32 -10 -51 -21 -45 -20 -77 3 -122 25 -47 140 -213 176 -253 15 -17 34
-47 42 -67 36 -88 74 -160 99 -188 94 -103 187 -194 199 -194 10 0 35 -28 35
-39 0 -6 5 -11 10 -11 6 0 10 -7 10 -15 0 -8 4 -15 8 -15 10 0 35 -50 29 -56
-9 -10 -67 10 -67 22 0 8 -4 14 -9 14 -5 0 -32 16 -61 35 -62 41 -109 45 -167
14 -53 -28 -64 -50 -70 -134 -6 -78 -8 -71 66 -185 20 -30 41 -58 46 -62 6 -4
6 -8 2 -8 -5 0 -1 -7 7 -16 18 -18 20 -30 6 -39 -13 -8 -49 14 -84 55 -17 19
-40 44 -52 55 -12 11 -28 36 -38 55 -9 19 -35 55 -59 80 -115 124 -171 192
-187 228 -10 22 -44 73 -75 114 -31 40 -104 136 -162 213 -58 77 -125 161
-148 186 -24 25 -50 60 -59 78 -9 17 -98 140 -197 274 -214 286 -234 318 -220
345 6 11 42 38 80 61 38 22 79 53 91 68 25 33 62 56 115 73 35 11 100 43 225
113 19 10 42 25 51 33 8 8 18 14 21 14 4 0 50 25 103 55 54 30 101 55 105 55
4 0 19 14 33 30 15 17 37 30 48 30 20 0 116 49 149 75 8 7 25 16 36 19 12 4
68 32 125 63 57 31 151 80 209 110 58 29 120 62 138 73 17 11 32 17 32 15 0
-3 12 1 28 8 15 8 34 12 42 9 8 -2 12 -1 7 4 -4 4 7 13 25 19 48 15 66 14 61
-6z m-24972 -115 c40 -20 34 -43 -18 -72 -134 -74 -404 -63 -379 15 20 64 305
105 397 57z m12799 -45 c0 -5 -4 -9 -10 -9 -5 0 -10 7 -10 16 0 8 5 12 10 9 6
-3 10 -10 10 -16z m12423 -43 c4 -10 1 -13 -8 -9 -8 3 -12 9 -9 14 7 12 11 11
17 -5z m-12693 -61 c0 -16 -27 -32 -37 -21 -7 7 16 36 28 36 5 0 9 -7 9 -15z
m1150 -9 c0 -27 -17 -43 -31 -29 -12 12 1 53 17 53 8 0 14 -10 14 -24z m-1490
-56 c0 -5 -2 -10 -4 -10 -3 0 -8 5 -11 10 -3 6 -1 10 4 10 6 0 11 -4 11 -10z
m1534 -281 c3 -30 4 -49 1 -44 -8 18 -45 243 -44 267 1 27 34 -145 43 -223z
m-13264 187 c34 -11 39 -23 31 -68 -2 -12 -75 -53 -116 -65 -22 -7 -88 -13
-148 -13 -94 0 -111 3 -142 23 -19 12 -35 29 -35 38 0 75 268 131 410 85z
m12373 -30 l-6 -29 -12 29 c-15 36 -9 62 11 42 7 -8 10 -25 7 -42z m484 30
c-6 -17 -47 -20 -47 -3 0 9 6 17 13 20 18 6 38 -4 34 -17z m-1109 -4 c2 -7 -6
-12 -17 -12 -21 0 -27 11 -14 24 9 9 26 2 31 -12z m342 -3 c0 -5 -7 -9 -15 -9
-15 0 -20 12 -9 23 8 8 24 -1 24 -14z m-1310 1 c0 -5 -9 -10 -20 -10 -11 0
-20 5 -20 10 0 6 9 10 20 10 11 0 20 -4 20 -10z m1597 -132 c-2 -13 -4 -5 -4
17 -1 22 1 32 4 23 2 -10 2 -28 0 -40z m-13416 -39 c18 -9 12 -21 -84 -162
-57 -84 -125 -181 -151 -217 -25 -36 -68 -96 -95 -135 -27 -38 -67 -90 -90
-114 -22 -24 -41 -47 -41 -52 0 -5 -16 -25 -36 -44 -29 -29 -37 -45 -43 -90
-4 -30 -10 -57 -12 -59 -3 -3 -16 1 -29 8 -20 10 -25 19 -23 46 1 19 6 36 12
38 6 2 11 15 11 28 0 13 4 24 9 24 5 0 15 17 21 38 7 20 18 44 24 52 12 16 11
15 90 157 30 54 67 121 83 148 15 28 42 74 58 103 71 127 130 207 165 224 39
20 101 23 131 7z m15119 -9 c0 -5 -5 -10 -11 -10 -5 0 -7 5 -4 10 3 6 8 10 11
10 2 0 4 -4 4 -10z m-787 -117 c-5 -13 -8 -13 -21 0 -9 10 -12 23 -8 34 7 17
8 17 21 0 8 -11 11 -26 8 -34z m-1527 26 c3 -6 2 -15 -2 -19 -12 -12 -38 5
-30 19 9 14 23 14 32 0z m642 -6 c-4 -22 -22 -20 -26 1 -2 10 3 16 13 16 10 0
15 -7 13 -17z m481 8 c15 -10 7 -31 -13 -31 -8 0 -19 6 -25 13 -19 23 9 36 38
18z m-2109 -11 c0 -5 -6 -10 -14 -10 -8 0 -18 5 -21 10 -3 6 3 10 14 10 12 0
21 -4 21 -10z m1330 0 c0 -5 -4 -10 -10 -10 -5 0 -10 5 -10 10 0 6 5 10 10 10
6 0 10 -4 10 -10z m-4930 -163 c38 -19 45 -26 45 -52 0 -41 -47 -70 -137 -85
-66 -12 -206 -8 -265 6 -28 7 -48 55 -34 82 38 71 280 101 391 49z m929 -72
c70 -41 67 -73 -9 -112 -40 -21 -59 -23 -181 -23 -76 0 -145 3 -154 6 -26 10
-47 61 -35 84 25 47 109 70 240 67 84 -2 112 -6 139 -22z m-6355 -28 c81 -21
87 -56 17 -104 -41 -28 -111 -43 -231 -49 -79 -5 -101 -2 -130 13 -147 77 139
193 344 140z m-1244 -17 c15 -24 12 -38 -17 -64 -46 -43 -123 -45 -123 -2 0
34 -14 47 -56 52 -59 7 -89 -13 -89 -59 0 -34 -3 -38 -32 -43 -30 -6 -98 10
-107 24 -11 20 18 54 61 73 70 30 115 37 241 35 88 -1 115 -4 122 -16z m2398
0 c47 -21 54 -46 23 -74 -26 -23 -87 -45 -128 -46 -39 0 -40 6 -12 36 39 41 5
80 -66 75 -33 -2 -65 -26 -65 -49 0 -9 8 -24 17 -34 33 -37 -17 -46 -101 -18
-45 14 -49 49 -10 79 63 49 262 67 342 31z m9072 -17 c116 -17 150 -32 150
-66 0 -50 -37 -65 -172 -72 -48 -3 -99 -10 -113 -15 -15 -6 -44 -10 -65 -10
-32 0 -43 6 -69 37 -42 51 -40 74 11 118 48 41 44 40 258 8z m-1945 1 c81 -21
107 -39 103 -72 -2 -17 -14 -33 -38 -47 -31 -18 -52 -20 -190 -20 -134 0 -160
3 -184 18 -20 14 -26 25 -24 44 9 73 190 115 333 77z m1070 -5 c75 -19 93 -30
98 -57 11 -58 -25 -72 -223 -82 -85 -5 -165 -12 -177 -15 -54 -17 -86 84 -43
138 18 22 30 27 88 30 89 6 208 -1 257 -14z m6361 -122 c46 -23 94 -66 94 -83
0 -23 -49 -94 -64 -94 -23 0 -8 -35 23 -53 15 -8 50 -40 79 -71 44 -46 51 -58
43 -78 -11 -30 -56 -35 -133 -13 -33 9 -86 15 -121 14 -73 -3 -103 5 -117 32
-15 27 2 55 48 77 43 21 68 19 75 -7 6 -23 64 -38 80 -21 9 8 7 15 -7 26 -11
8 -27 14 -37 14 -9 0 -19 7 -23 15 -3 9 0 15 9 15 31 0 27 25 -9 56 -35 30
-36 33 -27 72 9 43 1 65 -29 74 -31 10 -50 -11 -50 -56 0 -53 -13 -60 -75 -41
-91 27 -117 62 -75 100 16 15 44 20 126 25 57 4 107 10 110 13 9 9 47 1 80
-16z m-632 -168 c52 -46 58 -71 21 -95 -28 -18 -78 -13 -127 12 -34 17 -36 46
-8 92 27 44 56 42 114 -9z m-212 4 c9 -10 19 -28 22 -39 5 -18 1 -24 -25 -33
-44 -15 -75 -14 -109 4 -34 18 -41 58 -12 74 29 17 107 13 124 -6z m-14115
-169 c8 -23 -23 -44 -63 -44 -98 0 -76 57 24 59 22 1 35 -5 39 -15z m-202 -13
c18 -7 18 -9 -7 -25 -37 -24 -89 -28 -110 -9 -14 12 -15 19 -7 30 12 14 91 17
124 4z m-763 -44 c31 -48 -15 -68 -188 -79 -152 -10 -174 -6 -174 32 0 34 28
44 134 46 99 2 143 7 155 19 9 10 64 -4 73 -18z m-2884 -103 c49 -23 45 -66
-14 -138 -26 -31 -47 -56 -48 -56 0 0 -1 46 -1 103 1 59 -4 105 -10 110 -14
11 32 -1 73 -19z"/>
<path d="M32022 2699 c-65 -25 -88 -56 -74 -98 15 -41 87 -146 114 -165 36
-25 93 -21 112 9 20 30 20 84 1 109 -24 32 -18 53 25 83 48 34 57 53 34 70
-28 20 -150 15 -212 -8z"/>
<path d="M32176 2328 c-16 -29 -17 -41 -8 -66 12 -35 122 -207 188 -293 24
-31 54 -80 67 -110 13 -30 45 -84 70 -120 26 -37 47 -71 47 -77 0 -6 21 -33
48 -60 33 -35 60 -54 90 -61 39 -11 47 -10 92 15 55 30 69 55 72 133 1 47 -2
57 -23 75 -38 31 -241 262 -263 299 -23 37 -125 167 -170 215 -39 42 -93 71
-149 78 -41 6 -44 5 -61 -28z"/>
<path d="M8183 3489 c-42 -12 -59 -42 -37 -63 33 -33 144 -10 144 29 0 8 -13
21 -30 30 -33 17 -32 17 -77 4z"/>
<path d="M8650 3149 c-40 -12 -65 -33 -56 -47 10 -17 73 -23 120 -11 53 13 60
20 43 42 -16 22 -63 29 -107 16z"/>
<path d="M15820 2695 c-32 -39 23 -79 78 -56 37 16 46 35 26 56 -20 19 -88 20
-104 0z"/>
<path d="M16767 2638 c-36 -13 -33 -46 6 -68 24 -13 30 -13 55 0 40 23 41 55
1 69 -18 6 -32 11 -33 10 -1 0 -14 -5 -29 -11z"/>
<path d="M10435 2586 c-16 -12 -17 -18 -8 -39 12 -26 19 -27 61 -13 27 9 29
42 3 56 -26 13 -33 13 -56 -4z"/>
<path d="M20721 2562 c-17 -13 -22 -24 -17 -40 16 -48 80 -50 105 -4 23 43
-47 78 -88 44z"/>
<path d="M18731 2552 c-15 -27 12 -62 48 -62 34 0 54 21 49 52 -2 19 -10 23
-45 26 -33 2 -44 -1 -52 -16z"/>
<path d="M19782 2558 c-27 -27 2 -78 45 -78 23 0 53 29 53 53 0 32 -73 50 -98
25z"/>
</g>
</svg>
