<svg xmlns="http://www.w3.org/2000/svg" viewBox="0 0 64 64">
  <defs>
    <style>
      .cls-1 {
        fill: #55adff;
      }

      .cls-2 {
        fill: #212121;
      }

      .cls-3 {
        fill: #ea7760;
      }

      .cls-4 {
        fill: #ffab91;
      }

      .cls-5 {
        fill: #cbcfd1;
      }

      .cls-6 {
        fill: #bf0d27;
      }

      .cls-7 {
        fill: #e8002d;
      }

      .cls-8 {
        fill: #90a4ae;
      }

      .cls-9 {
        fill: #464646;
      }
    </style>
  </defs>
  <title>01 Male Avatar</title>
  <g id="Layer_3" data-name="Layer 3">
    <circle class="cls-1" cx="32" cy="32" r="28"/>
  </g>
  <g id="Layer_2" data-name="Layer 2">
    <path class="cls-2" d="M41.8214,30.8929A32.5089,32.5089,0,0,0,45,22.999c.0142-.0712,1.9692-7.03-1-9.999a5.47,5.47,0,0,0-4.03-1.4673,10.1155,10.1155,0,0,0-2.3515.292l-.5665.1387-.3994-.4248C36.1123,10.9639,34.79,10,32,10c-4.1143,0-11,0-13,4-1.979,3.958-.5067,9.8162-.4941,9.876a22.91,22.91,0,0,0,3.28,7.0169Z"/>
    <path class="cls-3" d="M46.94,30A4.0012,4.0012,0,0,0,43,26.0061V26H41v8h2v-.0061A4.0012,4.0012,0,0,0,46.94,30Z"/>
    <path class="cls-3" d="M21,26a4,4,0,0,0,0,8h2V26Z"/>
    <path class="cls-4" d="M52.76,50.8a28.19,28.19,0,0,1-11.13,7.5h-.01a27.4712,27.4712,0,0,1-5.73,1.43,2.85,2.85,0,0,1-.29.03c-.22.04-.45.07-.68.09a28.4963,28.4963,0,0,1-5.84,0c-.23-.02-.46-.05-.68-.09a2.85,2.85,0,0,1-.29-.03,27.4712,27.4712,0,0,1-5.73-1.43h-.01a28.19,28.19,0,0,1-11.13-7.5,8.0251,8.0251,0,0,1,5.14-3.81l5.51-1.26,2.53-.59.23-.05.88-.2.83-.19L28,44.32V41.24h8v3.08l1.64.38.83.19.88.2.23.05,2.53.59,5.51,1.26A8.0251,8.0251,0,0,1,52.76,50.8Z"/>
    <path class="cls-2" d="M52.76,50.8a28.19,28.19,0,0,1-11.13,7.5h-.01a27.4712,27.4712,0,0,1-5.73,1.43,2.85,2.85,0,0,1-.29.03c-.22.04-.45.07-.68.09a28.4963,28.4963,0,0,1-5.84,0c-.23-.02-.46-.05-.68-.09a2.85,2.85,0,0,1-.29-.03,27.4712,27.4712,0,0,1-5.73-1.43h-.01a28.19,28.19,0,0,1-11.13-7.5,8.0251,8.0251,0,0,1,5.14-3.81l5.51-1.26,2.53-.58v-.01l.23-.05.88-.2.86.66,3.46,2.68.56.43L32,49.89l1.59-1.23.56-.43,3.46-2.68.86-.66.88.2.23.05v.01l2.53.58,5.51,1.26A8.0251,8.0251,0,0,1,52.76,50.8Z"/>
    <path class="cls-3" d="M36,43.3639V41.2433H28v2.1206a12.8947,12.8947,0,0,0,8,0Z"/>
    <path class="cls-4" d="M21,26c0-6.0751,1-11,11-11h0c10,0,11,4.9249,11,11v5A11,11,0,0,1,32,42h0A11,11,0,0,1,21,31Z"/>
    <path class="cls-2" d="M35.7909,13.178a7.1561,7.1561,0,0,1,7.191,7.1561v4.9872l-.0029-.0005c-.043-.01-4.6318-1.0542-6.4131-3.978l-.6592-1.0821-.8994.8931A10.8872,10.8872,0,0,1,30.0005,24a43.3342,43.3342,0,0,1-9,1V20.3714a7.1562,7.1562,0,0,1,7.1213-7.1561Z"/>
    <path class="cls-5" d="M39.58,45.14v.01a37.4942,37.4942,0,0,1-1.28,8.56,33.1629,33.1629,0,0,1-2.41,6.02,2.85,2.85,0,0,1-.29.03c-.22.04-.45.07-.68.09a28.4963,28.4963,0,0,1-5.84,0c-.23-.02-.46-.05-.68-.09a2.85,2.85,0,0,1-.29-.03,33.1629,33.1629,0,0,1-2.41-6.02,37.4942,37.4942,0,0,1-1.28-8.56v-.01l.23-.05.88-.2.86.66,3.46,2.68.56.43L32,49.89l1.59-1.23.56-.43,3.46-2.68.86-.66.88.2Z"/>
    <polygon class="cls-6" points="33.75 47.808 32 48.786 30.25 47.808 28.362 49.817 30.464 51.973 32 51.973 33.536 51.973 35.638 49.817 33.75 47.808"/>
    <path class="cls-7" d="M35.6,59.76c-.22.04-.45.07-.68.09a28.4963,28.4963,0,0,1-5.84,0c-.23-.02-.46-.05-.68-.09l.3-1.11,1.82-6.68L32,51.95l1.48.02,1.82,6.68Z"/>
    <polygon class="cls-8" points="28.22 52.041 31 47.747 28 44.321 24.647 45.092 28.22 52.041"/>
    <polygon class="cls-8" points="39.353 45.092 36 44.321 33 47.747 35.78 52.041 39.353 45.092"/>
    <path class="cls-9" d="M29.08,59.85c-.23-.02-.46-.05-.68-.09a2.85,2.85,0,0,1-.29-.03,27.4712,27.4712,0,0,1-5.73-1.43h-.01L22,58l1-4-3.38-2.24,2.27-6.03,2.53-.58.23-.06.88-.2.83-.19c.01.28.01.56.03.85.05,1.12.15,2.31.31,3.53a59.9952,59.9952,0,0,0,2,9.57C28.83,59.06,28.95,59.46,29.08,59.85Z"/>
    <path class="cls-9" d="M41,54l1,4-.37.3h-.01a27.4712,27.4712,0,0,1-5.73,1.43,2.85,2.85,0,0,1-.29.03c-.22.04-.45.07-.68.09.13-.39.25-.79.38-1.2a59.9952,59.9952,0,0,0,2-9.57c.16-1.22.26-2.41.31-3.53.02-.29.02-.57.03-.85l.83.19.88.2.23.06,2.53.58,2.27,6.03Z"/>
  </g>
</svg>
