<svg xmlns="http://www.w3.org/2000/svg" viewBox="0 0 64 64">
  <defs>
    <style>
      .cls-1 {
        fill: #55adff;
      }

      .cls-2 {
        fill: #212121;
      }

      .cls-3 {
        fill: #ea7760;
      }

      .cls-4 {
        fill: #ffab91;
      }

      .cls-5 {
        fill: #cbcfd1;
      }

      .cls-6 {
        fill: #697f87;
      }

      .cls-7 {
        fill: #90a4ae;
      }

      .cls-8 {
        fill: #464646;
      }
    </style>
  </defs>
  <title>02 Female Avatar</title>
  <g id="Layer_3" data-name="Layer 3">
    <circle class="cls-1" cx="32" cy="32" r="28"/>
  </g>
  <g id="Layer_2" data-name="Layer 2">
    <path class="cls-2" d="M45.9985,39c-2.9121,0-4.227-1.0327-4.7514-1.6484L40.9478,37H23.0493l-.2993.3516C22.2256,37.9673,20.9106,39,17.9985,39A11.0821,11.0821,0,0,1,11,36.001,4.3692,4.3692,0,0,0,13.9985,32c0-5.832.8286-16.144,6.378-19.6831C23.3774,10.4019,28.353,10,31.9985,10c2.7886,0,4.1109.9629,4.6514,1.5371l.4009.4258.5679-.1406a9.9833,9.9833,0,0,1,2.3564-.2974,6.0468,6.0468,0,0,1,2.9907.6992C49.3135,15.7905,49.9985,27.2422,49.9985,32A4.432,4.432,0,0,0,53,36,11.0965,11.0965,0,0,1,45.9985,39Z"/>
    <path class="cls-3" d="M46.94,30A4.0012,4.0012,0,0,0,43,26.0061V26H41v8h2v-.0061A4.0012,4.0012,0,0,0,46.94,30Z"/>
    <path class="cls-3" d="M21,26a4,4,0,0,0,0,8h2V26Z"/>
    <path class="cls-4" d="M52.96,50.57a28.1445,28.1445,0,0,1-9.97,7.19,29.1427,29.1427,0,0,1-3.82,1.31c-.69.18-1.38.34-2.09.46a27.6886,27.6886,0,0,1-10.16,0c-.71-.12-1.4-.28-2.09-.46a29.1427,29.1427,0,0,1-3.82-1.31,28.1445,28.1445,0,0,1-9.97-7.19,3.9837,3.9837,0,0,1,2.08-1.6l7.39-2.44,3.71-1.22.18-.06.22-.07.79-.26.6-.2,1.96-.65L28,41.25v-.01h8v2.8l1.99.66.75.25.64.21.22.07.18.06,3.7,1.23,7.4,2.45A3.9837,3.9837,0,0,1,52.96,50.57Z"/>
    <path class="cls-2" d="M52.96,50.57a28.1445,28.1445,0,0,1-9.97,7.19,29.1427,29.1427,0,0,1-3.82,1.31c-.69.18-1.38.34-2.09.46a27.6886,27.6886,0,0,1-10.16,0c-.71-.12-1.4-.28-2.09-.46a29.1427,29.1427,0,0,1-3.82-1.31,28.1445,28.1445,0,0,1-9.97-7.19,3.9837,3.9837,0,0,1,2.08-1.6l7.39-2.44,3.71-1.22-.07,1.9v.01l-.16,4.27,1.99.7,2.2.77.07.03L32,54.3l3.75-1.31.07-.03,2.2-.77,1.99-.7-.16-4.31-.07-1.89,3.7,1.23,7.4,2.45A3.9837,3.9837,0,0,1,52.96,50.57Z"/>
    <path class="cls-5" d="M39.58,57.68c-.12.48-.25.94-.41,1.39-.69.18-1.38.34-2.09.46a27.6886,27.6886,0,0,1-10.16,0c-.71-.12-1.4-.28-2.09-.46-.16-.45-.29-.91-.41-1.39a33.6443,33.6443,0,0,1-.27-10.46v-.01c.1-1,.21-1.71.25-1.96l.22-.07.79-.26.12-.03.42.53,1.17,1.44,2.84,3.5L32,52.89l2.04-2.53,2.84-3.5,1.17-1.45.42-.52.27.06.64.21.22.07c.04.24.14.95.25,1.95A33.9034,33.9034,0,0,1,39.58,57.68Z"/>
    <path class="cls-3" d="M36,43.3639V41.2433H28v2.1206a12.8947,12.8947,0,0,0,8,0Z"/>
    <path class="cls-4" d="M21,26c0-6.0751,1-11,11-11h0c10,0,11,4.9249,11,11v5A11,11,0,0,1,32,42h0A11,11,0,0,1,21,31Z"/>
    <path class="cls-2" d="M35.7909,13.178a7.1561,7.1561,0,0,1,7.191,7.1561v4.9872l-.0029-.0005c-.043-.01-4.6318-1.0542-6.4131-3.978l-.6592-1.0821-.8994.8931A10.8872,10.8872,0,0,1,30.0005,24a43.3342,43.3342,0,0,1-9,1V20.3714a7.1562,7.1562,0,0,1,7.1213-7.1561Z"/>
    <polygon class="cls-6" points="32 52.891 31 48.747 27 46.801 32 52.891"/>
    <polygon class="cls-6" points="32 52.891 33 48.747 37 46.801 32 52.891"/>
    <polygon class="cls-7" points="28.22 53.041 31 48.747 27.973 44.071 24.625 45.176 28.22 53.041"/>
    <polygon class="cls-7" points="39.381 45.163 36 44.045 33 48.747 35.78 53.041 39.381 45.163"/>
    <path class="cls-8" d="M25.98,52.19a59.2541,59.2541,0,0,0,.94,7.34c-.71-.12-1.4-.28-2.09-.46a29.1427,29.1427,0,0,1-3.82-1.31l-.89-.91L21.6,53l-3.09-2.63,2-3.84,3.71-1.22.18-.06.22-.07.79-.26.6-.2c-.02.23-.04.46-.06.7-.05.79-.08,1.62-.08,2.48C25.85,49.29,25.9,50.74,25.98,52.19Z"/>
    <path class="cls-8" d="M42.4,53l1.48,3.85-.89.91a29.1427,29.1427,0,0,1-3.82,1.31c-.69.18-1.38.34-2.09.46a59.2541,59.2541,0,0,0,.94-7.34c.09-1.46.13-2.91.11-4.3,0-.86-.03-1.69-.08-2.48-.02-.24-.04-.48-.06-.71l.75.25.64.21.22.07.18.06,3.7,1.23,2.01,3.85Z"/>
  </g>
</svg>
