<svg xmlns="http://www.w3.org/2000/svg" viewBox="0 0 64 64">
  <defs>
    <style>
      .cls-1 {
        fill: #ff89aa;
      }

      .cls-2 {
        fill: #b27232;
      }

      .cls-3 {
        fill: #ea7760;
      }

      .cls-4 {
        fill: #ffab91;
      }

      .cls-5 {
        fill: #1e243a;
      }

      .cls-6 {
        fill: #cbcfd1;
      }

      .cls-7 {
        fill: #01314f;
      }

      .cls-8 {
        fill: #00406f;
      }

      .cls-9 {
        fill: #212121;
      }

      .cls-10 {
        fill: #90a4ae;
      }

      .cls-11 {
        fill: #343d56;
      }
    </style>
  </defs>
  <title>03 Male Avatar</title>
  <g id="Layer_3" data-name="Layer 3">
    <circle class="cls-1" cx="32" cy="32" r="28"/>
  </g>
  <g id="Layer_2" data-name="Layer 2">
    <path class="cls-2" d="M22.4643,32.8929S19.75,20.8929,19.75,18s1.3661-4.7857,4.0982-4.9464c3.3489-.197,4.9554.2143,9.7232-2.4107,4.2706-2.3512,8.4573-1.21,10.1786,1.6607,1.0921,1.8214,1.0714,4.6071.5089,7.9821-.325,1.95-3.01,12.2969-3.01,12.2969Z"/>
    <path class="cls-3" d="M46.94,30A4.0012,4.0012,0,0,0,43,26.0061V26H41v8h2v-.0061A4.0012,4.0012,0,0,0,46.94,30Z"/>
    <path class="cls-3" d="M21,26a4,4,0,0,0,0,8h2V26Z"/>
    <path class="cls-4" d="M52.76,50.8a28.19,28.19,0,0,1-11.13,7.5h-.01a27.4712,27.4712,0,0,1-5.73,1.43,2.85,2.85,0,0,1-.29.03c-.22.04-.45.07-.68.09a28.4963,28.4963,0,0,1-5.84,0c-.23-.02-.46-.05-.68-.09a2.85,2.85,0,0,1-.29-.03,27.4712,27.4712,0,0,1-5.73-1.43h-.01a28.19,28.19,0,0,1-11.13-7.5,8.0251,8.0251,0,0,1,5.14-3.81l5.51-1.26,2.53-.59.23-.05.88-.2.83-.19L28,44.32V41.24h8v3.08l1.64.38.83.19.88.2.23.05,2.53.59,5.51,1.26A8.0251,8.0251,0,0,1,52.76,50.8Z"/>
    <path class="cls-5" d="M52.76,50.8a28.19,28.19,0,0,1-11.13,7.5h-.01a27.4712,27.4712,0,0,1-5.73,1.43,2.85,2.85,0,0,1-.29.03c-.22.04-.45.07-.68.09a28.4963,28.4963,0,0,1-5.84,0c-.23-.02-.46-.05-.68-.09a2.85,2.85,0,0,1-.29-.03,27.4712,27.4712,0,0,1-5.73-1.43h-.01a28.19,28.19,0,0,1-11.13-7.5,8.0251,8.0251,0,0,1,5.14-3.81l5.51-1.26,2.53-.58v-.01l.23-.05.88-.2.86.66,3.46,2.68.56.43L32,49.89l1.59-1.23.56-.43,3.46-2.68.86-.66.88.2.23.05v.01l2.53.58,5.51,1.26A8.0251,8.0251,0,0,1,52.76,50.8Z"/>
    <path class="cls-3" d="M36,43.3639V41.2433H28v2.1206a12.8947,12.8947,0,0,0,8,0Z"/>
    <path class="cls-4" d="M21,26c0-6.0751,1-11,11-11h0c10,0,11,4.9249,11,11v5A11,11,0,0,1,32,42h0A11,11,0,0,1,21,31Z"/>
    <path class="cls-4" d="M21,26c0-6.0751,1-11,11-11h0c10,0,11,4.9249,11,11v5A11,11,0,0,1,32,42h0A11,11,0,0,1,21,31Z"/>
    <path class="cls-6" d="M39.58,45.14v.01a37.4942,37.4942,0,0,1-1.28,8.56,33.1629,33.1629,0,0,1-2.41,6.02,2.85,2.85,0,0,1-.29.03c-.22.04-.45.07-.68.09a28.4963,28.4963,0,0,1-5.84,0c-.23-.02-.46-.05-.68-.09a2.85,2.85,0,0,1-.29-.03,33.1629,33.1629,0,0,1-2.41-6.02,37.4942,37.4942,0,0,1-1.28-8.56v-.01l.23-.05.88-.2.86.66,3.46,2.68.56.43L32,49.89l1.59-1.23.56-.43,3.46-2.68.86-.66.88.2Z"/>
    <polygon class="cls-7" points="33.75 47.808 32 48.786 30.25 47.808 28.362 49.817 30.464 51.973 32 51.973 33.536 51.973 35.638 49.817 33.75 47.808"/>
    <path class="cls-8" d="M34.92,59.85a28.4963,28.4963,0,0,1-5.84,0c-.23-.02-.46-.05-.68-.09l.3-1.11,1.82-6.68L32,51.95l1.48.02,1.82,6.68.3,1.11C35.38,59.8,35.15,59.83,34.92,59.85Z"/>
    <path class="cls-2" d="M21,30.0566l1.4821-8.6459a48.9905,48.9905,0,0,0,8.0514-1.0513,22.9148,22.9148,0,0,0,5.1817-2.2547,15.0913,15.0913,0,0,0,5.8027,3.306L43,30.0566V18.6116a3.79,3.79,0,0,0-3.79-3.79H24.79a3.79,3.79,0,0,0-3.79,3.79Z"/>
    <path class="cls-9" d="M39.2411,23.4464a18.6219,18.6219,0,0,0-4.7947.924,14.9882,14.9882,0,0,1-4.8928,0,18.6219,18.6219,0,0,0-4.7947-.924,12.99,12.99,0,0,0-4.2053.8036v1.7748a16.2207,16.2207,0,0,1,.8035,1.5466c.2411.5893.5484,3.4054,2.9733,4.0982,2.4375.6964,4.3392.1026,5.491-1.3928A6.6947,6.6947,0,0,0,31.1607,26.5a.8446.8446,0,0,1,1.6786,0,6.6947,6.6947,0,0,0,1.3393,3.7768C35.33,31.7722,37.2321,32.366,39.67,31.67c2.4249-.6928,2.7322-3.5089,2.9733-4.0982a16.2207,16.2207,0,0,1,.8035-1.5466V24.25A12.99,12.99,0,0,0,39.2411,23.4464ZM28.5357,30.6785a4.5454,4.5454,0,0,1-4.5268.2143,3.5288,3.5288,0,0,1-1.7143-2.625A2.5763,2.5763,0,0,1,23,25.6971a5.2173,5.2173,0,0,1,3.2768-.8846c1.5178,0,3.6518.8035,3.92,1.6875A4.7546,4.7546,0,0,1,28.5357,30.6785Zm13.17-2.4107a3.5288,3.5288,0,0,1-1.7143,2.625,4.5454,4.5454,0,0,1-4.5268-.2143A4.7546,4.7546,0,0,1,33.8036,26.5c.2678-.884,2.4018-1.6875,3.92-1.6875A5.2173,5.2173,0,0,1,41,25.6971,2.5763,2.5763,0,0,1,41.7054,28.2678Z"/>
    <polygon class="cls-10" points="28.22 52.041 31 47.747 28 44.321 24.647 45.092 28.22 52.041"/>
    <polygon class="cls-10" points="39.353 45.092 36 44.321 33 47.747 35.78 52.041 39.353 45.092"/>
    <path class="cls-11" d="M29.08,59.85c-.23-.02-.46-.05-.68-.09a2.85,2.85,0,0,1-.29-.03,27.4712,27.4712,0,0,1-5.73-1.43h-.01L22,58l1-4-3.38-2.24,2.27-6.03,2.53-.58.23-.06.88-.2.83-.19c.01.28.01.56.03.85.05,1.12.15,2.31.31,3.53a59.9952,59.9952,0,0,0,2,9.57C28.83,59.06,28.95,59.46,29.08,59.85Z"/>
    <path class="cls-11" d="M41,54l1,4-.37.3h-.01a27.4712,27.4712,0,0,1-5.73,1.43,2.85,2.85,0,0,1-.29.03c-.22.04-.45.07-.68.09.13-.39.25-.79.38-1.2a59.9952,59.9952,0,0,0,2-9.57c.16-1.22.26-2.41.31-3.53.02-.29.02-.57.03-.85l.83.19.88.2.23.06,2.53.58,2.27,6.03Z"/>
  </g>
</svg>
