<svg xmlns="http://www.w3.org/2000/svg" viewBox="0 0 64 64">
  <defs>
    <style>
      .cls-1 {
        fill: #ffca4e;
      }

      .cls-2 {
        fill: #4c2d22;
      }

      .cls-3 {
        fill: #ea7760;
      }

      .cls-4 {
        fill: #ffab91;
      }

      .cls-5 {
        fill: #79bbff;
      }

      .cls-6 {
        fill: #bf0d27;
      }

      .cls-7 {
        fill: #e8002d;
      }

      .cls-8 {
        fill: #5592c9;
      }
    </style>
  </defs>
  <title>04 Male Avatar</title>
  <g id="Layer_3" data-name="Layer 3">
    <circle class="cls-1" cx="32" cy="32" r="28"/>
  </g>
  <g id="Layer_2" data-name="Layer 2">
    <path class="cls-2" d="M42.1071,33.1428S45.1607,23.5,44.1964,18.3571s-4.2589-6.1875-6.4285-5.7053c-1.0451.2322-2.0876,2.1612-2.89,4.0982H29.1223c-.8026-1.937-1.8451-3.866-2.89-4.0982-2.17-.4822-5.4642.5625-6.4285,5.7053s2.0893,14.7857,2.0893,14.7857l4.796,5.25H37.3111Z"/>
    <path class="cls-3" d="M45.94,30A4.0012,4.0012,0,0,0,42,26.0061V26H40v8h2v-.0061A4.0012,4.0012,0,0,0,45.94,30Z"/>
    <path class="cls-3" d="M22,26a4,4,0,0,0,0,8h2V26Z"/>
    <path class="cls-4" d="M52.76,50.8A27.95,27.95,0,0,1,34.8,59.86c-.92.09-1.85.14-2.8.14s-1.88-.05-2.8-.14A27.95,27.95,0,0,1,11.24,50.8a8.0251,8.0251,0,0,1,5.14-3.81l8.27-1.9.88-.2L28,44.32V38.24h8v6.08l2.47.57.88.2,8.27,1.9A8.0251,8.0251,0,0,1,52.76,50.8Z"/>
    <path class="cls-3" d="M36,43.1871V38.2433H28v4.9438a10.2478,10.2478,0,0,0,8,0Z"/>
    <path class="cls-4" d="M21,26c0-6.0751,1-11,11-11h0c10,0,11,4.9249,11,11L39.79,36.2731A8.161,8.161,0,0,1,32,42h0a8.161,8.161,0,0,1-7.79-5.7269Z"/>
    <path class="cls-2" d="M47.0446,10.8839s-.4821,1.0446-2.8928.7232-8.4-3.1108-13.42-2.0089c-3.8612.8476-5.3056,3.0953-5.8458,4.8149A2.86,2.86,0,0,0,23.0982,15,12.8472,12.8472,0,0,0,21,18.25l-.1518,10.5535L21.8125,27l.7091-6.0668A9.214,9.214,0,0,0,25.2679,19.08c.5246-.5186,1.0366-1.0146,1.5088-1.4677a32.0635,32.0635,0,0,0,9.0983,2.5927,11.9985,11.9985,0,0,0,3.8976-.258,9.5691,9.5691,0,0,0,1.7058.9859L42.1875,27l.9643,1.8035L43,18.8393a7.7113,7.7113,0,0,0,2.8393-3.375A10.1325,10.1325,0,0,0,47.0446,10.8839Z"/>
    <path class="cls-5" d="M52.76,50.8A27.95,27.95,0,0,1,34.8,59.86c-.92.09-1.85.14-2.8.14s-1.88-.05-2.8-.14A27.95,27.95,0,0,1,11.24,50.8a8.0251,8.0251,0,0,1,5.14-3.81l8.27-1.9.88-.2,4.32,3.34.56.43L32,49.89l1.59-1.23.56-.43,4.32-3.34.88.2,8.27,1.9A8.0251,8.0251,0,0,1,52.76,50.8Z"/>
    <polygon class="cls-6" points="33.75 47.808 32 48.786 30.25 47.808 28.362 49.817 30.464 51.973 32 51.973 33.536 51.973 35.638 49.817 33.75 47.808"/>
    <path class="cls-7" d="M34.8,59.86c-.92.09-1.85.14-2.8.14s-1.88-.05-2.8-.14l1.32-7.89L32,51.95l1.48.02Z"/>
    <polygon class="cls-8" points="28.22 52.041 31 47.747 28 44.321 24.647 45.092 28.22 52.041"/>
    <polygon class="cls-8" points="39.353 45.092 36 44.321 33 47.747 35.78 52.041 39.353 45.092"/>
  </g>
</svg>
