<svg xmlns="http://www.w3.org/2000/svg" viewBox="0 0 64 64">
  <defs>
    <style>
      .cls-1 {
        fill: #55adff;
      }

      .cls-2 {
        fill: #212121;
      }

      .cls-3 {
        fill: #8e4a3c;
      }

      .cls-4 {
        fill: #ba6e5a;
      }

      .cls-5 {
        fill: #fff362;
      }

      .cls-6 {
        fill: #01314f;
      }

      .cls-7 {
        fill: #00406f;
      }

      .cls-8 {
        fill: #ed8835;
      }
    </style>
  </defs>
  <title>05 Male Avatar</title>
  <g id="Layer_3" data-name="Layer 3">
    <circle class="cls-1" cx="32" cy="32" r="28"/>
  </g>
  <g id="Layer_2" data-name="Layer 2">
    <path class="cls-2" d="M41.8214,30.8929A32.5089,32.5089,0,0,0,45,22.999c.0142-.0712,1.9692-7.03-1-9.999a5.47,5.47,0,0,0-4.03-1.4673,10.1155,10.1155,0,0,0-2.3515.292l-.5665.1387-.3994-.4248C36.1123,10.9639,34.79,10,32,10c-4.1143,0-11,0-13,4-1.979,3.958-.5067,9.8162-.4941,9.876a22.91,22.91,0,0,0,3.28,7.0169Z"/>
    <path class="cls-3" d="M46.94,30A4.0012,4.0012,0,0,0,43,26.0061V26H41v8h2v-.0061A4.0012,4.0012,0,0,0,46.94,30Z"/>
    <path class="cls-3" d="M21,26a4,4,0,0,0,0,8h2V26Z"/>
    <path class="cls-4" d="M52.76,50.8A27.95,27.95,0,0,1,34.8,59.86c-.92.09-1.85.14-2.8.14s-1.88-.05-2.8-.14A27.95,27.95,0,0,1,11.24,50.8a8.0251,8.0251,0,0,1,5.14-3.81l8.27-1.9.88-.2L28,44.32V41.24h8v3.08l2.47.57.88.2,8.27,1.9A8.0251,8.0251,0,0,1,52.76,50.8Z"/>
    <path class="cls-3" d="M36,43.3639V41.2433H28v2.1206a12.8947,12.8947,0,0,0,8,0Z"/>
    <path class="cls-4" d="M21,26c0-6.0751,1-11,11-11h0c10,0,11,4.9249,11,11v5A11,11,0,0,1,32,42h0A11,11,0,0,1,21,31Z"/>
    <path class="cls-2" d="M36.65,14.43V14l-1.45.16-2.49-.46s0,.12.01.31c-.23,0-.47-.01-.72-.01a16.7752,16.7752,0,0,0-7.1,1.26l-4.9.53V31a12.0055,12.0055,0,0,0,8,11.31,11.9392,11.9392,0,0,0,8,0,12.0322,12.0322,0,0,0,7.64-8.38A11.8176,11.8176,0,0,0,44,31V15.79ZM42,31a9.8635,9.8635,0,0,1-.47,3c-.05.15-.1.3-.15.44a6.01,6.01,0,0,1-2.81.66c-2.42-.09-4.19-1.8-6.57-1.8s-4.15,1.71-6.57,1.8a6.01,6.01,0,0,1-2.81-.66c-.05-.14-.1-.29-.15-.44A9.8635,9.8635,0,0,1,22,31V26c0-1.08.03-2.09.12-3.04l1.43-3.08s6.83-.64,9.49-1.52c.59-.2,1.09-.4,1.53-.58a4.6866,4.6866,0,0,0,.55.42,13.346,13.346,0,0,0,5.33,1.68l1.43,3.08c.09.95.12,1.96.12,3.04Z"/>
    <path class="cls-4" d="M32,35.1518a11.1083,11.1083,0,0,0-4,.83s-.0268,2.0625,1.2054,2.67C30.3729,39.2271,30.7232,38,32,38s1.6271,1.2271,2.7946.6518c1.2322-.6072,1.2054-2.67,1.2054-2.67A11.1083,11.1083,0,0,0,32,35.1518Z"/>
    <path class="cls-5" d="M52.76,50.8A27.95,27.95,0,0,1,34.8,59.86c-.92.09-1.85.14-2.8.14s-1.88-.05-2.8-.14A27.95,27.95,0,0,1,11.24,50.8a8.0251,8.0251,0,0,1,5.14-3.81l8.27-1.9.88-.2,4.32,3.34.56.43L32,49.89l1.59-1.23.56-.43,4.32-3.34.88.2,8.27,1.9A8.0251,8.0251,0,0,1,52.76,50.8Z"/>
    <polygon class="cls-6" points="33.75 47.808 32 48.786 30.25 47.808 28.362 49.817 30.464 51.973 32 51.973 33.536 51.973 35.638 49.817 33.75 47.808"/>
    <path class="cls-7" d="M34.8,59.86c-.92.09-1.85.14-2.8.14s-1.88-.05-2.8-.14l1.32-7.89L32,51.95l1.48.02Z"/>
    <polygon class="cls-8" points="28.22 52.041 31 47.747 28 44.321 24.647 45.092 28.22 52.041"/>
    <polygon class="cls-8" points="39.353 45.092 36 44.321 33 47.747 35.78 52.041 39.353 45.092"/>
  </g>
</svg>
